<mxfile host="app.diagrams.net" modified="2022-11-15T14:41:06.115Z" agent="5.0 (Macintosh; Intel Mac OS X 10_15_7) AppleWebKit/537.36 (KHTML, like Gecko) Chrome/107.0.0.0 Safari/537.36" etag="cfbA5F9J1SEgknXJt7pV" version="20.5.3" type="github">
  <diagram id="ocjEKwFpsV1IeR2hr5S3" name="Page-1">
    <mxGraphModel dx="2742" dy="2157" grid="1" gridSize="10" guides="1" tooltips="1" connect="1" arrows="1" fold="1" page="1" pageScale="1" pageWidth="850" pageHeight="1100" math="0" shadow="0">
      <root>
        <mxCell id="0" />
        <mxCell id="1" parent="0" />
        <mxCell id="KKFM_KyTwlKslKXIKcW2-42" value="" style="rounded=1;whiteSpace=wrap;html=1;strokeColor=#000000;fillColor=#E6E6E6;arcSize=7;fontSize=11;glass=0;noLabel=0;fillOpacity=50;" parent="1" vertex="1">
          <mxGeometry x="-840" y="-940" width="833.71" height="790" as="geometry" />
        </mxCell>
        <mxCell id="9TntlFMedyVJn60BAklY-58" value="" style="rounded=1;whiteSpace=wrap;html=1;strokeColor=#DC267F;fontSize=11;fillColor=#DD83AE;fillOpacity=50;" parent="1" vertex="1">
          <mxGeometry x="-255.9" y="-520" width="239.83" height="280" as="geometry" />
        </mxCell>
        <mxCell id="fXf3r-uobzJEQX9jouKG-5" value="P0" style="ellipse;whiteSpace=wrap;html=1;fontSize=11;" parent="1" vertex="1">
          <mxGeometry x="-769.6234149394738" y="-672.0044540174932" width="35.55784219473684" height="35.55806065242117" as="geometry" />
        </mxCell>
        <mxCell id="fXf3r-uobzJEQX9jouKG-16" value="" style="endArrow=classic;html=1;fontSize=11;" parent="1" source="fXf3r-uobzJEQX9jouKG-5" target="fXf3r-uobzJEQX9jouKG-10" edge="1">
          <mxGeometry x="-1069.0856842105263" y="-732.0129087194147" width="42.82684210526316" height="42.827091280585385" as="geometry">
            <mxPoint x="-729.9527642782238" y="-523.1093023864403" as="sourcePoint" />
            <mxPoint x="-725.5080340038817" y="-429.7693931738347" as="targetPoint" />
            <Array as="points" />
          </mxGeometry>
        </mxCell>
        <mxCell id="fXf3r-uobzJEQX9jouKG-17" value="" style="endArrow=classic;html=1;fontSize=11;" parent="1" source="fXf3r-uobzJEQX9jouKG-5" target="fXf3r-uobzJEQX9jouKG-11" edge="1">
          <mxGeometry x="-1069.0856842105263" y="-732.0129087194147" width="42.82684210526316" height="42.827091280585385" as="geometry">
            <mxPoint x="-729.9527642782238" y="-523.1093023864403" as="sourcePoint" />
            <mxPoint x="-681.0607312604606" y="-434.2141507553873" as="targetPoint" />
            <Array as="points">
              <mxPoint x="-480" y="-600" />
            </Array>
          </mxGeometry>
        </mxCell>
        <mxCell id="fXf3r-uobzJEQX9jouKG-19" value="" style="endArrow=classic;html=1;fontSize=11;" parent="1" source="fXf3r-uobzJEQX9jouKG-5" target="fXf3r-uobzJEQX9jouKG-12" edge="1">
          <mxGeometry x="-1069.0856842105263" y="-732.0129087194147" width="42.82684210526316" height="42.827091280585385" as="geometry">
            <mxPoint x="-717.381168608094" y="-523.8719022245134" as="sourcePoint" />
            <mxPoint x="-565.4977441275659" y="-460.8826962447032" as="targetPoint" />
            <Array as="points">
              <mxPoint x="-440" y="-610" />
            </Array>
          </mxGeometry>
        </mxCell>
        <mxCell id="fXf3r-uobzJEQX9jouKG-26" value="P4" style="ellipse;whiteSpace=wrap;html=1;fontSize=11;" parent="1" vertex="1">
          <mxGeometry x="-355.4859055482895" y="-1028.1729087194146" width="35.55784219473684" height="35.55806065242117" as="geometry" />
        </mxCell>
        <mxCell id="fXf3r-uobzJEQX9jouKG-27" value="P3" style="ellipse;whiteSpace=wrap;html=1;fontSize=11;" parent="1" vertex="1">
          <mxGeometry x="-422.88422004302635" y="-1028.1729087194146" width="35.55784219473684" height="35.55806065242117" as="geometry" />
        </mxCell>
        <mxCell id="fXf3r-uobzJEQX9jouKG-28" value="&lt;font style=&quot;font-size: 11px&quot;&gt;P2&lt;/font&gt;" style="ellipse;whiteSpace=wrap;html=1;fontSize=11;" parent="1" vertex="1">
          <mxGeometry x="-491.90995453776316" y="-1028.1729087194146" width="35.55784219473684" height="35.55806065242117" as="geometry" />
        </mxCell>
        <mxCell id="fXf3r-uobzJEQX9jouKG-29" value="&lt;font style=&quot;font-size: 11px;&quot;&gt;P0&lt;/font&gt;" style="ellipse;whiteSpace=wrap;html=1;fontSize=11;" parent="1" vertex="1">
          <mxGeometry x="-770.8534149394737" y="-1045.3037452316487" width="35.55784219473684" height="35.55806065242117" as="geometry" />
        </mxCell>
        <mxCell id="fXf3r-uobzJEQX9jouKG-30" value="Read Data" style="rounded=0;whiteSpace=wrap;html=1;fontSize=10;fillColor=#fff2cc;" parent="1" vertex="1">
          <mxGeometry x="-779.110890485921" y="-988.7801676849214" width="52.44781723723684" height="35.55806065242117" as="geometry" />
        </mxCell>
        <mxCell id="fXf3r-uobzJEQX9jouKG-31" value="" style="endArrow=classic;html=1;entryX=0.5;entryY=0;entryDx=0;entryDy=0;fontSize=11;" parent="1" source="fXf3r-uobzJEQX9jouKG-29" target="fXf3r-uobzJEQX9jouKG-30" edge="1">
          <mxGeometry x="-1108.6529157894738" y="-1028.1729087194146" width="42.82684210526316" height="42.827091280585385" as="geometry">
            <mxPoint x="-637.5115067092105" y="-819.2693023864402" as="sourcePoint" />
            <mxPoint x="-615.2878553374999" y="-841.4930902942035" as="targetPoint" />
          </mxGeometry>
        </mxCell>
        <mxCell id="fXf3r-uobzJEQX9jouKG-32" value="" style="endArrow=classic;html=1;exitX=0.5;exitY=1;exitDx=0;exitDy=0;fontSize=11;entryX=0.5;entryY=0;entryDx=0;entryDy=0;" parent="1" source="fXf3r-uobzJEQX9jouKG-30" edge="1">
          <mxGeometry x="-1108.6529157894738" y="-1030.1729087194146" width="42.82684210526316" height="42.827091280585385" as="geometry">
            <mxPoint x="-637.5115067092105" y="-807.9350296417823" as="sourcePoint" />
            <mxPoint x="-752.4010747598024" y="-926.1929811882882" as="targetPoint" />
          </mxGeometry>
        </mxCell>
        <mxCell id="fXf3r-uobzJEQX9jouKG-116" value="P0" style="ellipse;whiteSpace=wrap;html=1;fontSize=11;" parent="1" vertex="1">
          <mxGeometry x="-771.2351889394738" y="-190.00406570511205" width="35.55784219473684" height="35.55806065242117" as="geometry" />
        </mxCell>
        <mxCell id="fXf3r-uobzJEQX9jouKG-129" value="P3" style="ellipse;whiteSpace=wrap;html=1;fontSize=11;" parent="1" vertex="1">
          <mxGeometry x="-427.42335354828947" y="-129.68470081426824" width="35.55784219473684" height="35.55806065242117" as="geometry" />
        </mxCell>
        <mxCell id="fXf3r-uobzJEQX9jouKG-130" value="P2" style="ellipse;whiteSpace=wrap;html=1;fontSize=11;" parent="1" vertex="1">
          <mxGeometry x="-495.9694274114473" y="-129.68470081426824" width="35.55784219473684" height="35.55806065242117" as="geometry" />
        </mxCell>
        <mxCell id="fXf3r-uobzJEQX9jouKG-131" value="P1" style="ellipse;whiteSpace=wrap;html=1;fontSize=11;" parent="1" vertex="1">
          <mxGeometry x="-632.4902650640788" y="-131.99736374341978" width="35.55784219473684" height="35.55806065242117" as="geometry" />
        </mxCell>
        <mxCell id="9TntlFMedyVJn60BAklY-5" value="P5" style="ellipse;whiteSpace=wrap;html=1;fontSize=11;" parent="1" vertex="1">
          <mxGeometry x="-216.52838653388153" y="-1028.1729087194146" width="35.55784219473684" height="35.55806065242117" as="geometry" />
        </mxCell>
        <mxCell id="9TntlFMedyVJn60BAklY-6" value="P6" style="ellipse;whiteSpace=wrap;html=1;fontSize=11;" parent="1" vertex="1">
          <mxGeometry x="-148.46197330230257" y="-1028.1729087194146" width="35.55784219473684" height="35.55806065242117" as="geometry" />
        </mxCell>
        <mxCell id="9TntlFMedyVJn60BAklY-7" value="P7" style="ellipse;whiteSpace=wrap;html=1;fontSize=11;" parent="1" vertex="1">
          <mxGeometry x="-79.34201975493431" y="-1028.1729087194146" width="35.55784219473684" height="35.55806065242117" as="geometry" />
        </mxCell>
        <mxCell id="9TntlFMedyVJn60BAklY-16" value="" style="endArrow=classic;html=1;labelBackgroundColor=none;fontSize=11;" parent="1" source="fXf3r-uobzJEQX9jouKG-5" target="9TntlFMedyVJn60BAklY-12" edge="1">
          <mxGeometry x="-1063.9464631578949" y="-732.0129087194147" width="42.82684210526316" height="42.827091280585385" as="geometry">
            <mxPoint x="-927.048770708158" y="-487.5512417340191" as="sourcePoint" />
            <mxPoint x="-904.8251193364474" y="-509.77502964178234" as="targetPoint" />
            <Array as="points">
              <mxPoint x="-400" y="-620" />
            </Array>
          </mxGeometry>
        </mxCell>
        <mxCell id="9TntlFMedyVJn60BAklY-17" value="" style="endArrow=classic;html=1;labelBackgroundColor=none;fontSize=11;" parent="1" source="fXf3r-uobzJEQX9jouKG-5" target="9TntlFMedyVJn60BAklY-13" edge="1">
          <mxGeometry x="-1063.9464631578949" y="-732.0129087194147" width="42.82684210526316" height="42.827091280585385" as="geometry">
            <mxPoint x="-927.048770708158" y="-487.5512417340191" as="sourcePoint" />
            <mxPoint x="-904.8251193364474" y="-509.77502964178234" as="targetPoint" />
            <Array as="points">
              <mxPoint x="-360" y="-630" />
            </Array>
          </mxGeometry>
        </mxCell>
        <mxCell id="9TntlFMedyVJn60BAklY-18" value="" style="endArrow=classic;html=1;labelBackgroundColor=none;fontSize=11;" parent="1" source="fXf3r-uobzJEQX9jouKG-5" target="9TntlFMedyVJn60BAklY-14" edge="1">
          <mxGeometry x="-1063.9464631578949" y="-732.0129087194147" width="42.82684210526316" height="42.827091280585385" as="geometry">
            <mxPoint x="-927.048770708158" y="-487.5512417340191" as="sourcePoint" />
            <mxPoint x="-904.8251193364474" y="-509.77502964178234" as="targetPoint" />
            <Array as="points">
              <mxPoint x="-320" y="-640" />
            </Array>
          </mxGeometry>
        </mxCell>
        <mxCell id="9TntlFMedyVJn60BAklY-20" value="MBHMCMC Step" style="rounded=0;whiteSpace=wrap;html=1;fontSize=9;fillColor=#fff2cc;" parent="1" vertex="1">
          <mxGeometry x="-230.40094892243422" y="-426.6476253359234" width="52.44781723723684" height="35.55806065242117" as="geometry" />
        </mxCell>
        <mxCell id="9TntlFMedyVJn60BAklY-21" value="MBHMCMC Step" style="rounded=0;whiteSpace=wrap;html=1;fontSize=9;fillColor=#fff2cc;" parent="1" vertex="1">
          <mxGeometry x="-161.85487505927637" y="-426.6476253359234" width="52.44781723723684" height="35.55806065242117" as="geometry" />
        </mxCell>
        <mxCell id="9TntlFMedyVJn60BAklY-22" value="MBHMCMC Step" style="rounded=0;whiteSpace=wrap;html=1;fontSize=9;fillColor=#fff2cc;" parent="1" vertex="1">
          <mxGeometry x="-93.3088011961184" y="-426.6476253359234" width="52.44781723723684" height="35.55806065242117" as="geometry" />
        </mxCell>
        <mxCell id="9TntlFMedyVJn60BAklY-55" style="edgeStyle=orthogonalEdgeStyle;rounded=0;orthogonalLoop=1;jettySize=auto;html=1;entryX=0;entryY=0.5;entryDx=0;entryDy=0;labelBackgroundColor=none;fontSize=11;" parent="1" source="9TntlFMedyVJn60BAklY-34" target="9TntlFMedyVJn60BAklY-20" edge="1">
          <mxGeometry x="-313.5174050526315" y="-814.4584614455526" as="geometry">
            <Array as="points">
              <mxPoint x="-245" y="-282" />
              <mxPoint x="-245" y="-409" />
            </Array>
          </mxGeometry>
        </mxCell>
        <mxCell id="E9giI5npblJXZ4MztRx8-21" style="edgeStyle=none;rounded=0;orthogonalLoop=1;jettySize=auto;html=1;exitX=0;exitY=1;exitDx=0;exitDy=0;endArrow=none;endFill=0;entryX=1;entryY=0.5;entryDx=0;entryDy=0;" edge="1" parent="1" source="9TntlFMedyVJn60BAklY-34" target="fXf3r-uobzJEQX9jouKG-116">
          <mxGeometry relative="1" as="geometry">
            <mxPoint x="-730" y="-189.99999999999977" as="targetPoint" />
            <Array as="points">
              <mxPoint x="-400" y="-200" />
            </Array>
          </mxGeometry>
        </mxCell>
        <mxCell id="9TntlFMedyVJn60BAklY-34" value="P5" style="ellipse;whiteSpace=wrap;html=1;fontSize=11;" parent="1" vertex="1">
          <mxGeometry x="-222.2119963233552" y="-289.934058558876" width="35.55784219473684" height="35.55806065242117" as="geometry" />
        </mxCell>
        <mxCell id="9TntlFMedyVJn60BAklY-56" style="edgeStyle=orthogonalEdgeStyle;rounded=0;orthogonalLoop=1;jettySize=auto;html=1;entryX=1;entryY=0.5;entryDx=0;entryDy=0;labelBackgroundColor=none;fontSize=11;" parent="1" source="9TntlFMedyVJn60BAklY-35" target="9TntlFMedyVJn60BAklY-21" edge="1">
          <mxGeometry x="-316.0870155789473" y="-814.4584614455526" as="geometry">
            <Array as="points">
              <mxPoint x="-96" y="-282" />
              <mxPoint x="-96" y="-410" />
              <mxPoint x="-109" y="-410" />
            </Array>
          </mxGeometry>
        </mxCell>
        <mxCell id="E9giI5npblJXZ4MztRx8-22" style="edgeStyle=none;rounded=0;orthogonalLoop=1;jettySize=auto;html=1;exitX=0;exitY=1;exitDx=0;exitDy=0;endArrow=none;endFill=0;entryX=1;entryY=0.5;entryDx=0;entryDy=0;" edge="1" parent="1" source="9TntlFMedyVJn60BAklY-35" target="fXf3r-uobzJEQX9jouKG-116">
          <mxGeometry relative="1" as="geometry">
            <mxPoint x="-730" y="-189.99999999999977" as="targetPoint" />
            <Array as="points">
              <mxPoint x="-360" y="-190" />
            </Array>
          </mxGeometry>
        </mxCell>
        <mxCell id="9TntlFMedyVJn60BAklY-35" value="P6" style="ellipse;whiteSpace=wrap;html=1;fontSize=11;" parent="1" vertex="1">
          <mxGeometry x="-153.66592246019735" y="-289.934058558876" width="35.55784219473684" height="35.55806065242117" as="geometry" />
        </mxCell>
        <mxCell id="9TntlFMedyVJn60BAklY-57" style="edgeStyle=orthogonalEdgeStyle;rounded=0;orthogonalLoop=1;jettySize=auto;html=1;entryX=1;entryY=0.5;entryDx=0;entryDy=0;labelBackgroundColor=none;fontSize=11;" parent="1" source="9TntlFMedyVJn60BAklY-36" target="9TntlFMedyVJn60BAklY-22" edge="1">
          <mxGeometry x="-318.65662610526306" y="-814.4584614455526" as="geometry">
            <Array as="points">
              <mxPoint x="-27" y="-280" />
              <mxPoint x="-27" y="-410" />
              <mxPoint x="-41" y="-410" />
            </Array>
          </mxGeometry>
        </mxCell>
        <mxCell id="E9giI5npblJXZ4MztRx8-23" style="edgeStyle=none;rounded=0;orthogonalLoop=1;jettySize=auto;html=1;exitX=0;exitY=1;exitDx=0;exitDy=0;endArrow=none;endFill=0;entryX=1;entryY=0.5;entryDx=0;entryDy=0;" edge="1" parent="1" source="9TntlFMedyVJn60BAklY-36" target="fXf3r-uobzJEQX9jouKG-116">
          <mxGeometry relative="1" as="geometry">
            <mxPoint x="-740" y="-189.99999999999977" as="targetPoint" />
            <Array as="points">
              <mxPoint x="-320" y="-180" />
            </Array>
          </mxGeometry>
        </mxCell>
        <mxCell id="9TntlFMedyVJn60BAklY-36" value="P7" style="ellipse;whiteSpace=wrap;html=1;fontSize=11;" parent="1" vertex="1">
          <mxGeometry x="-85.11984859703949" y="-289.934058558876" width="35.55784219473684" height="35.55806065242117" as="geometry" />
        </mxCell>
        <mxCell id="9TntlFMedyVJn60BAklY-38" value="P4" style="ellipse;whiteSpace=wrap;html=1;fontSize=11;" parent="1" vertex="1">
          <mxGeometry x="-358.29071790230256" y="-129.68470081426824" width="35.55784219473684" height="35.55806065242117" as="geometry" />
        </mxCell>
        <mxCell id="9TntlFMedyVJn60BAklY-39" value="P5" style="ellipse;whiteSpace=wrap;html=1;fontSize=11;" parent="1" vertex="1">
          <mxGeometry x="-221.35874256546055" y="-129.68470081426824" width="35.55784219473684" height="35.55806065242117" as="geometry" />
        </mxCell>
        <mxCell id="9TntlFMedyVJn60BAklY-40" value="P6" style="ellipse;whiteSpace=wrap;html=1;fontSize=11;" parent="1" vertex="1">
          <mxGeometry x="-152.8126687023027" y="-129.68470081426824" width="35.55784219473684" height="35.55806065242117" as="geometry" />
        </mxCell>
        <mxCell id="9TntlFMedyVJn60BAklY-43" value="" style="endArrow=classic;html=1;labelBackgroundColor=none;fontSize=11;exitX=0.5;exitY=1;exitDx=0;exitDy=0;" parent="1" source="9TntlFMedyVJn60BAklY-20" target="9TntlFMedyVJn60BAklY-34" edge="1">
          <mxGeometry x="-313.5174050526315" y="-814.4584614455526" as="geometry">
            <mxPoint x="-151.28475003914474" y="-342.4252062846617" as="sourcePoint" />
            <mxPoint x="-106.83744729572373" y="-342.4252062846617" as="targetPoint" />
          </mxGeometry>
        </mxCell>
        <mxCell id="9TntlFMedyVJn60BAklY-45" value="" style="endArrow=classic;html=1;labelBackgroundColor=none;fontSize=11;exitX=0.5;exitY=1;exitDx=0;exitDy=0;" parent="1" source="9TntlFMedyVJn60BAklY-21" target="9TntlFMedyVJn60BAklY-35" edge="1">
          <mxGeometry x="-316.0870155789473" y="-814.4584614455526" as="geometry">
            <mxPoint x="-153.85436056546047" y="-342.4252062846617" as="sourcePoint" />
            <mxPoint x="-109.40705782203946" y="-342.4252062846617" as="targetPoint" />
          </mxGeometry>
        </mxCell>
        <mxCell id="9TntlFMedyVJn60BAklY-47" value="" style="endArrow=classic;html=1;labelBackgroundColor=none;fontSize=11;exitX=0.5;exitY=1;exitDx=0;exitDy=0;" parent="1" source="9TntlFMedyVJn60BAklY-22" target="9TntlFMedyVJn60BAklY-36" edge="1">
          <mxGeometry x="-318.65662610526306" y="-814.4584614455526" as="geometry">
            <mxPoint x="-156.4239710917763" y="-342.4252062846617" as="sourcePoint" />
            <mxPoint x="-111.9766683483553" y="-342.4252062846617" as="targetPoint" />
          </mxGeometry>
        </mxCell>
        <mxCell id="9TntlFMedyVJn60BAklY-1" value="" style="rounded=1;whiteSpace=wrap;html=1;strokeColor=#785EF0;fontSize=11;fillColor=#CDC2FF;fillOpacity=50;" parent="1" vertex="1">
          <mxGeometry x="-529.99" y="-520" width="239.83" height="280" as="geometry" />
        </mxCell>
        <mxCell id="fXf3r-uobzJEQX9jouKG-10" value="P2" style="ellipse;whiteSpace=wrap;html=1;fontSize=11;" parent="1" vertex="1">
          <mxGeometry x="-497.69056177125" y="-589.6129811882882" width="35.55784219473684" height="35.55806065242117" as="geometry" />
        </mxCell>
        <mxCell id="fXf3r-uobzJEQX9jouKG-11" value="P3" style="ellipse;whiteSpace=wrap;html=1;fontSize=11;" parent="1" vertex="1">
          <mxGeometry x="-428.2879510659869" y="-589.6129811882882" width="35.55784219473684" height="35.55806065242117" as="geometry" />
        </mxCell>
        <mxCell id="fXf3r-uobzJEQX9jouKG-12" value="P4" style="ellipse;whiteSpace=wrap;html=1;fontSize=11;" parent="1" vertex="1">
          <mxGeometry x="-359.74187720282896" y="-589.6129811882882" width="35.55784219473684" height="35.55806065242117" as="geometry" />
        </mxCell>
        <mxCell id="E9giI5npblJXZ4MztRx8-61" style="edgeStyle=none;rounded=0;orthogonalLoop=1;jettySize=auto;html=1;exitX=0.5;exitY=1;exitDx=0;exitDy=0;entryX=0.5;entryY=0;entryDx=0;entryDy=0;fontSize=9;startArrow=none;startFill=0;endArrow=classic;endFill=1;" edge="1" parent="1" source="fXf3r-uobzJEQX9jouKG-23" target="E9giI5npblJXZ4MztRx8-56">
          <mxGeometry relative="1" as="geometry" />
        </mxCell>
        <mxCell id="fXf3r-uobzJEQX9jouKG-23" value="GBMCMC Step" style="rounded=0;whiteSpace=wrap;html=1;fontSize=10;fillColor=#fff2cc;" parent="1" vertex="1">
          <mxGeometry x="-505.8681706105263" y="-446.6476253359234" width="52.44781723723684" height="35.55806065242117" as="geometry" />
        </mxCell>
        <mxCell id="E9giI5npblJXZ4MztRx8-62" style="edgeStyle=none;rounded=0;orthogonalLoop=1;jettySize=auto;html=1;exitX=0.5;exitY=1;exitDx=0;exitDy=0;fontSize=9;startArrow=none;startFill=0;endArrow=classic;endFill=1;" edge="1" parent="1" source="fXf3r-uobzJEQX9jouKG-25" target="E9giI5npblJXZ4MztRx8-54">
          <mxGeometry relative="1" as="geometry" />
        </mxCell>
        <mxCell id="fXf3r-uobzJEQX9jouKG-25" value="GBMCMC Step" style="rounded=0;whiteSpace=wrap;html=1;fontSize=10;fillColor=#fff2cc;" parent="1" vertex="1">
          <mxGeometry x="-367.9194860421053" y="-446.6476253359234" width="52.44781723723684" height="35.55806065242117" as="geometry" />
        </mxCell>
        <mxCell id="fXf3r-uobzJEQX9jouKG-75" value="" style="endArrow=classic;html=1;fontSize=11;" parent="1" source="fXf3r-uobzJEQX9jouKG-10" target="E9giI5npblJXZ4MztRx8-4" edge="1">
          <mxGeometry x="-933.7186016842106" y="-866.2956178474732" as="geometry">
            <mxPoint x="-481.2450597561842" y="-536.4946052962669" as="sourcePoint" />
            <mxPoint x="-481.3206201708481" y="-469.82324157297717" as="targetPoint" />
          </mxGeometry>
        </mxCell>
        <mxCell id="fXf3r-uobzJEQX9jouKG-79" value="" style="endArrow=classic;html=1;entryX=0.5;entryY=0;entryDx=0;entryDy=0;fontSize=11;" parent="1" source="fXf3r-uobzJEQX9jouKG-12" target="E9giI5npblJXZ4MztRx8-2" edge="1">
          <mxGeometry x="-938.001285894737" y="-866.2956178474732" as="geometry">
            <mxPoint x="-343.2963751877632" y="-536.4946052962669" as="sourcePoint" />
            <mxPoint x="-343.3719356024271" y="-469.82324157297717" as="targetPoint" />
          </mxGeometry>
        </mxCell>
        <mxCell id="KKFM_KyTwlKslKXIKcW2-16" style="edgeStyle=orthogonalEdgeStyle;rounded=0;jumpStyle=gap;orthogonalLoop=1;jettySize=auto;html=1;entryX=1;entryY=0.5;entryDx=0;entryDy=0;fontSize=11;exitX=1;exitY=0.5;exitDx=0;exitDy=0;" parent="1" source="E9giI5npblJXZ4MztRx8-54" target="fXf3r-uobzJEQX9jouKG-25" edge="1">
          <mxGeometry x="-936.8449611578949" y="-784.4584614455526" as="geometry">
            <Array as="points">
              <mxPoint x="-303" y="-377" />
              <mxPoint x="-303" y="-429" />
            </Array>
          </mxGeometry>
        </mxCell>
        <mxCell id="E9giI5npblJXZ4MztRx8-20" style="edgeStyle=none;rounded=0;orthogonalLoop=1;jettySize=auto;html=1;exitX=0;exitY=1;exitDx=0;exitDy=0;endArrow=none;endFill=0;entryX=1;entryY=0.5;entryDx=0;entryDy=0;" edge="1" parent="1" source="fXf3r-uobzJEQX9jouKG-97" target="fXf3r-uobzJEQX9jouKG-116">
          <mxGeometry relative="1" as="geometry">
            <mxPoint x="-730" y="-190" as="targetPoint" />
            <Array as="points">
              <mxPoint x="-440" y="-210" />
            </Array>
          </mxGeometry>
        </mxCell>
        <mxCell id="fXf3r-uobzJEQX9jouKG-97" value="P4" style="ellipse;whiteSpace=wrap;html=1;fontSize=11;" parent="1" vertex="1">
          <mxGeometry x="-359.73053344302633" y="-289.934058558876" width="35.55784219473684" height="35.55806065242117" as="geometry" />
        </mxCell>
        <mxCell id="E9giI5npblJXZ4MztRx8-19" style="edgeStyle=none;rounded=0;orthogonalLoop=1;jettySize=auto;html=1;exitX=0;exitY=1;exitDx=0;exitDy=0;entryX=1;entryY=0.5;entryDx=0;entryDy=0;" edge="1" parent="1" source="fXf3r-uobzJEQX9jouKG-98" target="fXf3r-uobzJEQX9jouKG-116">
          <mxGeometry relative="1" as="geometry">
            <mxPoint x="-740" y="-190" as="targetPoint" />
            <Array as="points" />
          </mxGeometry>
        </mxCell>
        <mxCell id="E9giI5npblJXZ4MztRx8-53" style="edgeStyle=none;rounded=0;orthogonalLoop=1;jettySize=auto;html=1;exitX=1;exitY=0.5;exitDx=0;exitDy=0;entryX=0;entryY=0.5;entryDx=0;entryDy=0;fontSize=9;startArrow=classic;startFill=1;endArrow=classic;endFill=1;" edge="1" parent="1">
          <mxGeometry relative="1" as="geometry">
            <mxPoint x="-392.7187651114432" y="-377.1550282326655" as="sourcePoint" />
            <mxPoint x="-359.73053344302434" y="-377.1550282326655" as="targetPoint" />
          </mxGeometry>
        </mxCell>
        <mxCell id="E9giI5npblJXZ4MztRx8-58" style="edgeStyle=none;rounded=0;orthogonalLoop=1;jettySize=auto;html=1;exitX=1;exitY=0.5;exitDx=0;exitDy=0;entryX=1;entryY=0.5;entryDx=0;entryDy=0;fontSize=9;startArrow=none;startFill=0;endArrow=classic;endFill=1;" edge="1" parent="1" source="fXf3r-uobzJEQX9jouKG-98" target="E9giI5npblJXZ4MztRx8-13">
          <mxGeometry relative="1" as="geometry">
            <Array as="points">
              <mxPoint x="-370" y="-272" />
              <mxPoint x="-370" y="-325" />
            </Array>
          </mxGeometry>
        </mxCell>
        <mxCell id="fXf3r-uobzJEQX9jouKG-98" value="P3" style="ellipse;whiteSpace=wrap;html=1;fontSize=11;" parent="1" vertex="1">
          <mxGeometry x="-428.27660730618425" y="-289.934058558876" width="35.55784219473684" height="35.55806065242117" as="geometry" />
        </mxCell>
        <mxCell id="KKFM_KyTwlKslKXIKcW2-13" style="edgeStyle=orthogonalEdgeStyle;rounded=0;jumpStyle=gap;orthogonalLoop=1;jettySize=auto;html=1;fontSize=11;entryX=0;entryY=0.5;entryDx=0;entryDy=0;exitX=0;exitY=0.5;exitDx=0;exitDy=0;" parent="1" source="E9giI5npblJXZ4MztRx8-56" target="fXf3r-uobzJEQX9jouKG-23" edge="1">
          <mxGeometry x="-932.5622769473686" y="-784.4584614455526" as="geometry">
            <Array as="points">
              <mxPoint x="-521" y="-377" />
              <mxPoint x="-521" y="-429" />
            </Array>
            <mxPoint x="-504.29385589473685" y="-417.0020182581301" as="targetPoint" />
          </mxGeometry>
        </mxCell>
        <mxCell id="E9giI5npblJXZ4MztRx8-18" style="rounded=0;orthogonalLoop=1;jettySize=auto;html=1;exitX=0;exitY=1;exitDx=0;exitDy=0;entryX=1;entryY=0.5;entryDx=0;entryDy=0;endArrow=none;endFill=0;" edge="1" parent="1" source="fXf3r-uobzJEQX9jouKG-99" target="fXf3r-uobzJEQX9jouKG-116">
          <mxGeometry relative="1" as="geometry">
            <Array as="points" />
          </mxGeometry>
        </mxCell>
        <mxCell id="E9giI5npblJXZ4MztRx8-52" style="edgeStyle=none;rounded=0;orthogonalLoop=1;jettySize=auto;html=1;exitX=1;exitY=0.5;exitDx=0;exitDy=0;entryX=0;entryY=0.5;entryDx=0;entryDy=0;fontSize=9;startArrow=classic;startFill=1;endArrow=classic;endFill=1;" edge="1" parent="1">
          <mxGeometry relative="1" as="geometry">
            <mxPoint x="-462.1213758167095" y="-377.1550282326655" as="sourcePoint" />
            <mxPoint x="-428.27660730618834" y="-377.1550282326655" as="targetPoint" />
          </mxGeometry>
        </mxCell>
        <mxCell id="fXf3r-uobzJEQX9jouKG-99" value="P2" style="ellipse;whiteSpace=wrap;html=1;fontSize=11;" parent="1" vertex="1">
          <mxGeometry x="-497.67921801144735" y="-289.934058558876" width="35.55784219473684" height="35.55806065242117" as="geometry" />
        </mxCell>
        <mxCell id="E9giI5npblJXZ4MztRx8-41" style="edgeStyle=none;rounded=0;orthogonalLoop=1;jettySize=auto;html=1;exitX=0.5;exitY=1;exitDx=0;exitDy=0;endArrow=classic;endFill=1;" edge="1" parent="1" source="9TntlFMedyVJn60BAklY-12" target="E9giI5npblJXZ4MztRx8-37">
          <mxGeometry relative="1" as="geometry" />
        </mxCell>
        <mxCell id="9TntlFMedyVJn60BAklY-12" value="P5" style="ellipse;whiteSpace=wrap;html=1;fontSize=11;" parent="1" vertex="1">
          <mxGeometry x="-222.2233400831579" y="-589.6129811882882" width="35.55784219473684" height="35.55806065242117" as="geometry" />
        </mxCell>
        <mxCell id="E9giI5npblJXZ4MztRx8-42" style="edgeStyle=none;rounded=0;orthogonalLoop=1;jettySize=auto;html=1;exitX=0.5;exitY=1;exitDx=0;exitDy=0;entryX=0.5;entryY=0;entryDx=0;entryDy=0;endArrow=classic;endFill=1;" edge="1" parent="1" source="9TntlFMedyVJn60BAklY-13" target="E9giI5npblJXZ4MztRx8-38">
          <mxGeometry relative="1" as="geometry" />
        </mxCell>
        <mxCell id="9TntlFMedyVJn60BAklY-13" value="P6" style="ellipse;whiteSpace=wrap;html=1;fontSize=11;" parent="1" vertex="1">
          <mxGeometry x="-153.67726622000004" y="-589.6129811882882" width="35.55784219473684" height="35.55806065242117" as="geometry" />
        </mxCell>
        <mxCell id="E9giI5npblJXZ4MztRx8-43" style="edgeStyle=none;rounded=0;orthogonalLoop=1;jettySize=auto;html=1;exitX=0.5;exitY=1;exitDx=0;exitDy=0;endArrow=classic;endFill=1;" edge="1" parent="1" source="9TntlFMedyVJn60BAklY-14" target="E9giI5npblJXZ4MztRx8-39">
          <mxGeometry relative="1" as="geometry" />
        </mxCell>
        <mxCell id="9TntlFMedyVJn60BAklY-14" value="P7" style="ellipse;whiteSpace=wrap;html=1;fontSize=11;" parent="1" vertex="1">
          <mxGeometry x="-85.13119235684206" y="-589.6129811882882" width="35.55784219473684" height="35.55806065242117" as="geometry" />
        </mxCell>
        <mxCell id="KKFM_KyTwlKslKXIKcW2-25" style="edgeStyle=orthogonalEdgeStyle;rounded=0;jumpStyle=gap;orthogonalLoop=1;jettySize=auto;html=1;strokeWidth=1;fontSize=11;jumpSize=5;entryX=-0.007;entryY=0.433;entryDx=0;entryDy=0;entryPerimeter=0;exitX=0;exitY=0.5;exitDx=0;exitDy=0;" parent="1" target="l6eoJXe1GCLnJdnGcLJA-2" edge="1" source="fXf3r-uobzJEQX9jouKG-116">
          <mxGeometry x="-1110.3429157894739" y="-772.0129087194147" as="geometry">
            <Array as="points">
              <mxPoint x="-820" y="-172" />
              <mxPoint x="-820" y="-913" />
            </Array>
            <mxPoint x="-772.0551614868242" y="-189.11627906976742" as="sourcePoint" />
            <mxPoint x="-771.179995857171" y="-906.4139508620775" as="targetPoint" />
          </mxGeometry>
        </mxCell>
        <mxCell id="KKFM_KyTwlKslKXIKcW2-28" value="Post Processing" style="rounded=0;whiteSpace=wrap;html=1;fontSize=10;fillColor=#fff2cc;" parent="1" vertex="1">
          <mxGeometry x="-367.1801784509868" y="-62.91806065242122" width="52.44781723723684" height="35.55806065242117" as="geometry" />
        </mxCell>
        <mxCell id="KKFM_KyTwlKslKXIKcW2-35" style="edgeStyle=orthogonalEdgeStyle;rounded=0;jumpStyle=gap;orthogonalLoop=1;jettySize=auto;html=1;fontSize=11;" parent="1" source="9TntlFMedyVJn60BAklY-38" target="KKFM_KyTwlKslKXIKcW2-28" edge="1">
          <mxGeometry x="-449.4076885263157" y="-849.6401525872394" as="geometry" />
        </mxCell>
        <mxCell id="KKFM_KyTwlKslKXIKcW2-29" value="Post Processing" style="rounded=0;whiteSpace=wrap;html=1;fontSize=10;fillColor=#fff2cc;" parent="1" vertex="1">
          <mxGeometry x="-230.2482031141447" y="-62.91806065242122" width="52.44781723723684" height="35.55806065242117" as="geometry" />
        </mxCell>
        <mxCell id="KKFM_KyTwlKslKXIKcW2-30" value="Post Processing" style="rounded=0;whiteSpace=wrap;html=1;fontSize=10;fillColor=#fff2cc;" parent="1" vertex="1">
          <mxGeometry x="-161.70212925098684" y="-62.91806065242122" width="52.44781723723684" height="35.55806065242117" as="geometry" />
        </mxCell>
        <mxCell id="KKFM_KyTwlKslKXIKcW2-31" value="Post Processing" style="rounded=0;whiteSpace=wrap;html=1;fontSize=10;fillColor=#fff2cc;" parent="1" vertex="1">
          <mxGeometry x="-779.2344373828947" y="-62.91806065242122" width="52.44781723723684" height="35.55806065242117" as="geometry" />
        </mxCell>
        <mxCell id="KKFM_KyTwlKslKXIKcW2-32" value="Post Processing" style="rounded=0;whiteSpace=wrap;html=1;fontSize=10;fillColor=#fff2cc;" parent="1" vertex="1">
          <mxGeometry x="-641.3797256127631" y="-65.23072358157276" width="52.44781723723684" height="35.55806065242117" as="geometry" />
        </mxCell>
        <mxCell id="KKFM_KyTwlKslKXIKcW2-33" value="Post Processing" style="rounded=0;whiteSpace=wrap;html=1;fontSize=10;fillColor=#fff2cc;" parent="1" vertex="1">
          <mxGeometry x="-504.8588879601315" y="-62.91806065242122" width="52.44781723723684" height="35.55806065242117" as="geometry" />
        </mxCell>
        <mxCell id="KKFM_KyTwlKslKXIKcW2-34" value="Post Processing" style="rounded=0;whiteSpace=wrap;html=1;fontSize=10;fillColor=#fff2cc;" parent="1" vertex="1">
          <mxGeometry x="-436.3128140969737" y="-62.91806065242122" width="52.44781723723684" height="35.55806065242117" as="geometry" />
        </mxCell>
        <mxCell id="KKFM_KyTwlKslKXIKcW2-36" style="edgeStyle=orthogonalEdgeStyle;rounded=0;jumpStyle=gap;orthogonalLoop=1;jettySize=auto;html=1;fontSize=11;" parent="1" source="9TntlFMedyVJn60BAklY-39" target="KKFM_KyTwlKslKXIKcW2-29" edge="1">
          <mxGeometry x="-383.59139757894735" y="-849.6401525872394" as="geometry" />
        </mxCell>
        <mxCell id="KKFM_KyTwlKslKXIKcW2-37" style="edgeStyle=orthogonalEdgeStyle;rounded=0;jumpStyle=gap;orthogonalLoop=1;jettySize=auto;html=1;fontSize=11;" parent="1" source="9TntlFMedyVJn60BAklY-40" target="KKFM_KyTwlKslKXIKcW2-30" edge="1">
          <mxGeometry x="-386.16100810526314" y="-849.6401525872394" as="geometry" />
        </mxCell>
        <mxCell id="KKFM_KyTwlKslKXIKcW2-38" style="edgeStyle=orthogonalEdgeStyle;rounded=0;jumpStyle=gap;orthogonalLoop=1;jettySize=auto;html=1;fontSize=11;" parent="1" source="YqNIB3fvelUlKw-ISLuf-3" target="KKFM_KyTwlKslKXIKcW2-31" edge="1">
          <mxGeometry x="-1108.1444776842106" y="-849.6401525872394" as="geometry" />
        </mxCell>
        <mxCell id="KKFM_KyTwlKslKXIKcW2-39" style="edgeStyle=orthogonalEdgeStyle;rounded=0;jumpStyle=gap;orthogonalLoop=1;jettySize=auto;html=1;fontSize=11;" parent="1" source="fXf3r-uobzJEQX9jouKG-131" target="KKFM_KyTwlKslKXIKcW2-32" edge="1">
          <mxGeometry x="-1067.184885894737" y="-851.9528155163911" as="geometry" />
        </mxCell>
        <mxCell id="KKFM_KyTwlKslKXIKcW2-40" style="edgeStyle=orthogonalEdgeStyle;rounded=0;jumpStyle=gap;orthogonalLoop=1;jettySize=auto;html=1;fontSize=11;" parent="1" source="fXf3r-uobzJEQX9jouKG-130" target="KKFM_KyTwlKslKXIKcW2-33" edge="1">
          <mxGeometry x="-1001.779732631579" y="-849.6401525872394" as="geometry" />
        </mxCell>
        <mxCell id="KKFM_KyTwlKslKXIKcW2-41" style="edgeStyle=orthogonalEdgeStyle;rounded=0;jumpStyle=gap;orthogonalLoop=1;jettySize=auto;html=1;fontSize=11;" parent="1" source="fXf3r-uobzJEQX9jouKG-129" target="KKFM_KyTwlKslKXIKcW2-34" edge="1">
          <mxGeometry x="-1004.3493431578949" y="-849.6401525872394" as="geometry" />
        </mxCell>
        <mxCell id="4J-UiS3wNsruWkaUNkyr-2" value="MBH" style="text;html=1;strokeColor=none;fillColor=none;align=center;verticalAlign=middle;whiteSpace=wrap;rounded=0;fontSize=18;" parent="1" vertex="1">
          <mxGeometry x="-150.0511435789474" y="-1071" width="34.26147368421053" height="17.130836512234154" as="geometry" />
        </mxCell>
        <mxCell id="4J-UiS3wNsruWkaUNkyr-4" value="Root/Noise" style="text;html=1;strokeColor=none;fillColor=none;align=center;verticalAlign=middle;whiteSpace=wrap;rounded=0;fontSize=18;" parent="1" vertex="1">
          <mxGeometry x="-770.8519160000001" y="-1071" width="34.26147368421053" height="17.130836512234154" as="geometry" />
        </mxCell>
        <mxCell id="4J-UiS3wNsruWkaUNkyr-5" value="GBMCMC" style="text;html=1;strokeColor=none;fillColor=none;align=center;verticalAlign=middle;whiteSpace=wrap;rounded=0;fontSize=18;" parent="1" vertex="1">
          <mxGeometry x="-422.241421263158" y="-1071" width="34.26147368421053" height="17.130836512234154" as="geometry" />
        </mxCell>
        <mxCell id="4J-UiS3wNsruWkaUNkyr-6" value="" style="shape=curlyBracket;whiteSpace=wrap;html=1;rounded=1;strokeColor=#000000;fillColor=#E6E6E6;strokeWidth=2;fontSize=11;direction=south;" parent="1" vertex="1">
          <mxGeometry x="-223.1479976842105" y="-1045.3037452316487" width="182.9734002105263" height="8.890904149849527" as="geometry" />
        </mxCell>
        <mxCell id="4J-UiS3wNsruWkaUNkyr-7" value="" style="shape=curlyBracket;whiteSpace=wrap;html=1;rounded=1;strokeColor=#000000;fillColor=#E6E6E6;strokeWidth=2;fontSize=11;direction=south;" parent="1" vertex="1">
          <mxGeometry x="-496.59738452631586" y="-1045.3037452316487" width="182.9734002105263" height="8.890904149849527" as="geometry" />
        </mxCell>
        <mxCell id="YqNIB3fvelUlKw-ISLuf-3" value="P0" style="ellipse;whiteSpace=wrap;html=1;fontSize=11;" parent="1" vertex="1">
          <mxGeometry x="-770.9702487289474" y="-128.57119644097293" width="35.55784219473684" height="35.55806065242117" as="geometry" />
        </mxCell>
        <mxCell id="YqNIB3fvelUlKw-ISLuf-4" style="edgeStyle=orthogonalEdgeStyle;rounded=0;jumpStyle=gap;orthogonalLoop=1;jettySize=auto;html=1;fontSize=11;" parent="1" source="fXf3r-uobzJEQX9jouKG-116" target="YqNIB3fvelUlKw-ISLuf-3" edge="1">
          <mxGeometry x="-1108.4644776842106" y="-1042.2801525872394" as="geometry">
            <mxPoint x="-752.5862678421054" y="-427.466005052691" as="sourcePoint" />
            <mxPoint x="-753.341279876161" y="-255.5580606524212" as="targetPoint" />
          </mxGeometry>
        </mxCell>
        <mxCell id="LHhICdm2j_HilG0s3vL_-14" value="P7" style="ellipse;whiteSpace=wrap;html=1;fontSize=11;" parent="1" vertex="1">
          <mxGeometry x="-82.73425042861828" y="-129.68470081426824" width="35.55784219473684" height="35.55806065242117" as="geometry" />
        </mxCell>
        <mxCell id="LHhICdm2j_HilG0s3vL_-15" value="Post Processing" style="rounded=0;whiteSpace=wrap;html=1;fontSize=10;fillColor=#fff2cc;" parent="1" vertex="1">
          <mxGeometry x="-91.62371097730255" y="-62.91806065242122" width="52.44781723723684" height="35.55806065242117" as="geometry" />
        </mxCell>
        <mxCell id="LHhICdm2j_HilG0s3vL_-16" style="edgeStyle=orthogonalEdgeStyle;rounded=0;jumpStyle=gap;orthogonalLoop=1;jettySize=auto;html=1;fontSize=11;" parent="1" source="LHhICdm2j_HilG0s3vL_-14" target="LHhICdm2j_HilG0s3vL_-15" edge="1">
          <mxGeometry x="-173.85122105263162" y="-849.6401525872394" as="geometry" />
        </mxCell>
        <mxCell id="LHhICdm2j_HilG0s3vL_-17" value="&lt;font style=&quot;font-size: 11px;&quot;&gt;P1&lt;/font&gt;" style="ellipse;whiteSpace=wrap;html=1;fontSize=11;" parent="1" vertex="1">
          <mxGeometry x="-633.2556642219737" y="-1028.1729087194146" width="35.55784219473684" height="35.55806065242117" as="geometry" />
        </mxCell>
        <mxCell id="LHhICdm2j_HilG0s3vL_-18" value="VBMCMC" style="text;html=1;strokeColor=none;fillColor=none;align=center;verticalAlign=middle;whiteSpace=wrap;rounded=0;fontSize=18;" parent="1" vertex="1">
          <mxGeometry x="-631.5105025263158" y="-1071" width="34.26147368421053" height="17.130836512234154" as="geometry" />
        </mxCell>
        <mxCell id="l6eoJXe1GCLnJdnGcLJA-1" value="" style="rounded=1;whiteSpace=wrap;html=1;strokeColor=#98B5FF;fontSize=11;fillColor=#DBE5FF;fillOpacity=50;" parent="1" vertex="1">
          <mxGeometry x="-803.23" y="-837.38" width="102.78" height="137.38" as="geometry" />
        </mxCell>
        <mxCell id="l6eoJXe1GCLnJdnGcLJA-20" style="rounded=0;orthogonalLoop=1;jettySize=auto;html=1;exitX=1;exitY=0.5;exitDx=0;exitDy=0;entryX=0;entryY=0;entryDx=0;entryDy=0;" parent="1" source="l6eoJXe1GCLnJdnGcLJA-2" target="l6eoJXe1GCLnJdnGcLJA-9" edge="1">
          <mxGeometry relative="1" as="geometry">
            <Array as="points" />
          </mxGeometry>
        </mxCell>
        <mxCell id="E9giI5npblJXZ4MztRx8-31" style="edgeStyle=none;rounded=0;orthogonalLoop=1;jettySize=auto;html=1;exitX=1;exitY=0.5;exitDx=0;exitDy=0;entryX=0;entryY=0;entryDx=0;entryDy=0;endArrow=classic;endFill=1;" edge="1" parent="1" source="l6eoJXe1GCLnJdnGcLJA-2" target="E9giI5npblJXZ4MztRx8-25">
          <mxGeometry relative="1" as="geometry" />
        </mxCell>
        <mxCell id="E9giI5npblJXZ4MztRx8-32" style="edgeStyle=none;rounded=0;orthogonalLoop=1;jettySize=auto;html=1;exitX=1;exitY=0.5;exitDx=0;exitDy=0;entryX=0;entryY=0;entryDx=0;entryDy=0;endArrow=classic;endFill=1;" edge="1" parent="1" source="l6eoJXe1GCLnJdnGcLJA-2" target="E9giI5npblJXZ4MztRx8-26">
          <mxGeometry relative="1" as="geometry" />
        </mxCell>
        <mxCell id="E9giI5npblJXZ4MztRx8-33" style="edgeStyle=none;rounded=0;orthogonalLoop=1;jettySize=auto;html=1;exitX=1;exitY=0.5;exitDx=0;exitDy=0;entryX=0;entryY=0;entryDx=0;entryDy=0;endArrow=classic;endFill=1;" edge="1" parent="1" source="l6eoJXe1GCLnJdnGcLJA-2" target="E9giI5npblJXZ4MztRx8-27">
          <mxGeometry relative="1" as="geometry">
            <Array as="points">
              <mxPoint x="-400" y="-880" />
            </Array>
          </mxGeometry>
        </mxCell>
        <mxCell id="E9giI5npblJXZ4MztRx8-34" style="edgeStyle=none;rounded=0;orthogonalLoop=1;jettySize=auto;html=1;exitX=1;exitY=0.5;exitDx=0;exitDy=0;entryX=0;entryY=0;entryDx=0;entryDy=0;endArrow=classic;endFill=1;" edge="1" parent="1" source="l6eoJXe1GCLnJdnGcLJA-2" target="E9giI5npblJXZ4MztRx8-28">
          <mxGeometry relative="1" as="geometry">
            <Array as="points">
              <mxPoint x="-400" y="-890" />
            </Array>
          </mxGeometry>
        </mxCell>
        <mxCell id="E9giI5npblJXZ4MztRx8-35" style="edgeStyle=none;rounded=0;orthogonalLoop=1;jettySize=auto;html=1;exitX=1;exitY=0.5;exitDx=0;exitDy=0;entryX=0;entryY=0;entryDx=0;entryDy=0;endArrow=classic;endFill=1;" edge="1" parent="1" source="l6eoJXe1GCLnJdnGcLJA-2" target="E9giI5npblJXZ4MztRx8-29">
          <mxGeometry relative="1" as="geometry">
            <Array as="points">
              <mxPoint x="-360" y="-900" />
            </Array>
          </mxGeometry>
        </mxCell>
        <mxCell id="E9giI5npblJXZ4MztRx8-36" style="edgeStyle=none;rounded=0;orthogonalLoop=1;jettySize=auto;html=1;exitX=1;exitY=0.5;exitDx=0;exitDy=0;entryX=0;entryY=0;entryDx=0;entryDy=0;endArrow=classic;endFill=1;" edge="1" parent="1" source="l6eoJXe1GCLnJdnGcLJA-2" target="E9giI5npblJXZ4MztRx8-30">
          <mxGeometry relative="1" as="geometry">
            <Array as="points">
              <mxPoint x="-320" y="-910" />
            </Array>
          </mxGeometry>
        </mxCell>
        <mxCell id="l6eoJXe1GCLnJdnGcLJA-2" value="P0" style="ellipse;whiteSpace=wrap;html=1;fontSize=11;" parent="1" vertex="1">
          <mxGeometry x="-770.1799958571711" y="-928.1929811882882" width="35.55784219473684" height="35.55806065242117" as="geometry" />
        </mxCell>
        <mxCell id="l6eoJXe1GCLnJdnGcLJA-3" value="BayesLine Step" style="rounded=0;whiteSpace=wrap;html=1;fontSize=10;fillColor=#fff2cc;" parent="1" vertex="1">
          <mxGeometry x="-778.3576046964474" y="-821.2276253359233" width="52.44781723723684" height="35.55806065242117" as="geometry" />
        </mxCell>
        <mxCell id="l6eoJXe1GCLnJdnGcLJA-4" value="" style="endArrow=classic;html=1;exitX=0.5;exitY=1;exitDx=0;exitDy=0;fontSize=11;" parent="1" source="l6eoJXe1GCLnJdnGcLJA-3" target="l6eoJXe1GCLnJdnGcLJA-7" edge="1">
          <mxGeometry x="-1108.1565910526317" y="-1159.0384614455527" width="42.82684210526316" height="42.827091280585385" as="geometry">
            <mxPoint x="-654.7941030697368" y="-775.9003579157146" as="sourcePoint" />
            <mxPoint x="-752.5781691052632" y="-740.3422972632933" as="targetPoint" />
          </mxGeometry>
        </mxCell>
        <mxCell id="l6eoJXe1GCLnJdnGcLJA-5" value="" style="endArrow=classic;html=1;entryX=0.5;entryY=0;entryDx=0;entryDy=0;fontSize=11;startArrow=none;" parent="1" source="l6eoJXe1GCLnJdnGcLJA-18" target="l6eoJXe1GCLnJdnGcLJA-3" edge="1">
          <mxGeometry x="-1109.312915789474" y="-1170.8756178474732" as="geometry">
            <mxPoint x="-753.7344938421054" y="-841.0746052962668" as="sourcePoint" />
            <mxPoint x="-638.1715067092106" y="-743.2899385021086" as="targetPoint" />
          </mxGeometry>
        </mxCell>
        <mxCell id="l6eoJXe1GCLnJdnGcLJA-6" style="edgeStyle=orthogonalEdgeStyle;rounded=0;jumpStyle=gap;orthogonalLoop=1;jettySize=auto;html=1;fontSize=11;" parent="1" source="l6eoJXe1GCLnJdnGcLJA-7" edge="1">
          <mxGeometry x="-1108.1565910526317" y="-1159.0384614455527" as="geometry">
            <Array as="points">
              <mxPoint x="-795" y="-730" />
              <mxPoint x="-795" y="-803" />
            </Array>
            <mxPoint x="-777.833157894737" y="-803.1196366491199" as="targetPoint" />
          </mxGeometry>
        </mxCell>
        <mxCell id="l6eoJXe1GCLnJdnGcLJA-21" style="edgeStyle=none;rounded=0;orthogonalLoop=1;jettySize=auto;html=1;exitX=0.5;exitY=1;exitDx=0;exitDy=0;endArrow=classic;endFill=1;" parent="1" source="l6eoJXe1GCLnJdnGcLJA-7" target="fXf3r-uobzJEQX9jouKG-5" edge="1">
          <mxGeometry relative="1" as="geometry" />
        </mxCell>
        <mxCell id="l6eoJXe1GCLnJdnGcLJA-7" value="P0" style="ellipse;whiteSpace=wrap;html=1;fontSize=11;" parent="1" vertex="1">
          <mxGeometry x="-770.1686520973685" y="-744.514058558876" width="35.55784219473684" height="35.55806065242117" as="geometry" />
        </mxCell>
        <mxCell id="l6eoJXe1GCLnJdnGcLJA-8" value="" style="rounded=1;whiteSpace=wrap;html=1;strokeColor=#FFB000;fontSize=11;fillColor=#F9D995;fillOpacity=50;" parent="1" vertex="1">
          <mxGeometry x="-661.87" y="-837.38" width="102.78" height="137.38" as="geometry" />
        </mxCell>
        <mxCell id="l6eoJXe1GCLnJdnGcLJA-9" value="P1" style="ellipse;whiteSpace=wrap;html=1;fontSize=11;" parent="1" vertex="1">
          <mxGeometry x="-628.8171554361186" y="-880.0029811882882" width="35.55784219473684" height="35.55806065242117" as="geometry" />
        </mxCell>
        <mxCell id="l6eoJXe1GCLnJdnGcLJA-10" value="VBMCMC Step&amp;nbsp;" style="rounded=0;whiteSpace=wrap;html=1;fontSize=10;fillColor=#fff2cc;" parent="1" vertex="1">
          <mxGeometry x="-636.9947642753948" y="-821.2276253359233" width="52.44781723723684" height="35.55806065242117" as="geometry" />
        </mxCell>
        <mxCell id="l6eoJXe1GCLnJdnGcLJA-11" value="" style="endArrow=classic;html=1;entryX=0.5;entryY=0;entryDx=0;entryDy=0;fontSize=11;" parent="1" source="l6eoJXe1GCLnJdnGcLJA-9" target="l6eoJXe1GCLnJdnGcLJA-10" edge="1">
          <mxGeometry x="-967.9500753684212" y="-1170.8756178474732" as="geometry">
            <mxPoint x="-612.3716534210528" y="-841.0746052962668" as="sourcePoint" />
            <mxPoint x="-496.8086662881579" y="-743.2899385021086" as="targetPoint" />
          </mxGeometry>
        </mxCell>
        <mxCell id="l6eoJXe1GCLnJdnGcLJA-12" style="edgeStyle=orthogonalEdgeStyle;rounded=0;jumpStyle=gap;orthogonalLoop=1;jettySize=auto;html=1;fontSize=11;" parent="1" source="l6eoJXe1GCLnJdnGcLJA-13" edge="1">
          <mxGeometry x="-966.7937506315791" y="-1159.0384614455527" as="geometry">
            <Array as="points">
              <mxPoint x="-654" y="-727" />
              <mxPoint x="-654" y="-803" />
            </Array>
            <mxPoint x="-636.4703174736844" y="-803.1196366491199" as="targetPoint" />
          </mxGeometry>
        </mxCell>
        <mxCell id="l6eoJXe1GCLnJdnGcLJA-22" style="edgeStyle=none;rounded=0;orthogonalLoop=1;jettySize=auto;html=1;exitX=0.5;exitY=1;exitDx=0;exitDy=0;entryX=1;entryY=0;entryDx=0;entryDy=0;endArrow=classic;endFill=1;" parent="1" source="l6eoJXe1GCLnJdnGcLJA-13" target="fXf3r-uobzJEQX9jouKG-5" edge="1">
          <mxGeometry relative="1" as="geometry">
            <Array as="points">
              <mxPoint x="-640" y="-680" />
            </Array>
          </mxGeometry>
        </mxCell>
        <mxCell id="l6eoJXe1GCLnJdnGcLJA-13" value="P1" style="ellipse;whiteSpace=wrap;html=1;fontSize=11;" parent="1" vertex="1">
          <mxGeometry x="-628.8058116763159" y="-744.514058558876" width="35.55784219473684" height="35.55806065242117" as="geometry" />
        </mxCell>
        <mxCell id="l6eoJXe1GCLnJdnGcLJA-15" value="" style="endArrow=classic;html=1;exitX=0.5;exitY=1;exitDx=0;exitDy=0;fontSize=11;startArrow=none;" parent="1" source="l6eoJXe1GCLnJdnGcLJA-10" target="l6eoJXe1GCLnJdnGcLJA-13" edge="1">
          <mxGeometry x="-966.7937506315791" y="-1159.0384614455527" width="42.82684210526316" height="42.827091280585385" as="geometry">
            <mxPoint x="-610.4710677620396" y="-743.5790993729429" as="sourcePoint" />
            <mxPoint x="-611.2153286842106" y="-740.3422972632933" as="targetPoint" />
          </mxGeometry>
        </mxCell>
        <mxCell id="l6eoJXe1GCLnJdnGcLJA-18" value="P0" style="ellipse;whiteSpace=wrap;html=1;fontSize=11;" parent="1" vertex="1">
          <mxGeometry x="-770.1799958571711" y="-880.0029811882882" width="35.55784219473684" height="35.55806065242117" as="geometry" />
        </mxCell>
        <mxCell id="l6eoJXe1GCLnJdnGcLJA-19" value="" style="endArrow=classic;html=1;entryX=0.5;entryY=0;entryDx=0;entryDy=0;fontSize=11;endFill=1;" parent="1" source="l6eoJXe1GCLnJdnGcLJA-2" target="l6eoJXe1GCLnJdnGcLJA-18" edge="1">
          <mxGeometry x="-1109.312915789474" y="-1170.8756178474732" as="geometry">
            <mxPoint x="-752.4010747598027" y="-888.634920535867" as="sourcePoint" />
            <mxPoint x="-752.133696077829" y="-821.2276253359233" as="targetPoint" />
          </mxGeometry>
        </mxCell>
        <mxCell id="E9giI5npblJXZ4MztRx8-60" style="edgeStyle=none;rounded=0;orthogonalLoop=1;jettySize=auto;html=1;exitX=0.5;exitY=1;exitDx=0;exitDy=0;fontSize=9;startArrow=none;startFill=0;endArrow=classic;endFill=1;" edge="1" parent="1" source="E9giI5npblJXZ4MztRx8-2" target="fXf3r-uobzJEQX9jouKG-25">
          <mxGeometry relative="1" as="geometry" />
        </mxCell>
        <mxCell id="E9giI5npblJXZ4MztRx8-2" value="P4" style="ellipse;whiteSpace=wrap;html=1;fontSize=11;" vertex="1" parent="1">
          <mxGeometry x="-359.0624347061842" y="-497.8927814962809" width="35.55784219473684" height="35.55806065242117" as="geometry" />
        </mxCell>
        <mxCell id="E9giI5npblJXZ4MztRx8-51" style="edgeStyle=none;rounded=0;orthogonalLoop=1;jettySize=auto;html=1;exitX=1;exitY=0.5;exitDx=0;exitDy=0;entryX=0;entryY=0.5;entryDx=0;entryDy=0;fontSize=9;startArrow=classic;startFill=1;endArrow=classic;endFill=1;" edge="1" parent="1" source="E9giI5npblJXZ4MztRx8-3" target="E9giI5npblJXZ4MztRx8-2">
          <mxGeometry relative="1" as="geometry" />
        </mxCell>
        <mxCell id="E9giI5npblJXZ4MztRx8-3" value="P3" style="ellipse;whiteSpace=wrap;html=1;fontSize=11;" vertex="1" parent="1">
          <mxGeometry x="-428.4650454114474" y="-497.8927814962809" width="35.55784219473684" height="35.55806065242117" as="geometry" />
        </mxCell>
        <mxCell id="E9giI5npblJXZ4MztRx8-50" style="edgeStyle=none;rounded=0;orthogonalLoop=1;jettySize=auto;html=1;exitX=1;exitY=0.5;exitDx=0;exitDy=0;entryX=0;entryY=0.5;entryDx=0;entryDy=0;fontSize=9;endArrow=classic;endFill=1;startArrow=classic;startFill=1;" edge="1" parent="1" source="E9giI5npblJXZ4MztRx8-4" target="E9giI5npblJXZ4MztRx8-3">
          <mxGeometry relative="1" as="geometry" />
        </mxCell>
        <mxCell id="E9giI5npblJXZ4MztRx8-59" style="edgeStyle=none;rounded=0;orthogonalLoop=1;jettySize=auto;html=1;exitX=0.5;exitY=1;exitDx=0;exitDy=0;entryX=0.5;entryY=0;entryDx=0;entryDy=0;fontSize=9;startArrow=none;startFill=0;endArrow=classic;endFill=1;" edge="1" parent="1" source="E9giI5npblJXZ4MztRx8-4" target="fXf3r-uobzJEQX9jouKG-23">
          <mxGeometry relative="1" as="geometry" />
        </mxCell>
        <mxCell id="E9giI5npblJXZ4MztRx8-4" value="P2" style="ellipse;whiteSpace=wrap;html=1;fontSize=11;" vertex="1" parent="1">
          <mxGeometry x="-497.8676561167105" y="-497.8927814962809" width="35.55784219473684" height="35.55806065242117" as="geometry" />
        </mxCell>
        <mxCell id="E9giI5npblJXZ4MztRx8-14" style="edgeStyle=orthogonalEdgeStyle;rounded=0;orthogonalLoop=1;jettySize=auto;html=1;exitX=0.5;exitY=1;exitDx=0;exitDy=0;entryX=0.5;entryY=0;entryDx=0;entryDy=0;" edge="1" parent="1" source="E9giI5npblJXZ4MztRx8-55" target="E9giI5npblJXZ4MztRx8-13">
          <mxGeometry relative="1" as="geometry">
            <mxPoint x="-410.4976862088157" y="-384.37599790645504" as="sourcePoint" />
          </mxGeometry>
        </mxCell>
        <mxCell id="E9giI5npblJXZ4MztRx8-57" style="edgeStyle=none;rounded=0;orthogonalLoop=1;jettySize=auto;html=1;exitX=0.5;exitY=1;exitDx=0;exitDy=0;entryX=0.5;entryY=0;entryDx=0;entryDy=0;fontSize=9;startArrow=none;startFill=0;endArrow=classic;endFill=1;" edge="1" parent="1" source="E9giI5npblJXZ4MztRx8-13" target="fXf3r-uobzJEQX9jouKG-98">
          <mxGeometry relative="1" as="geometry" />
        </mxCell>
        <mxCell id="E9giI5npblJXZ4MztRx8-13" value="GBMCMC Step" style="rounded=0;whiteSpace=wrap;html=1;fontSize=10;fillColor=#fff2cc;" vertex="1" parent="1">
          <mxGeometry x="-436.3155599052632" y="-342.99762533592343" width="52.44781723723684" height="35.55806065242117" as="geometry" />
        </mxCell>
        <mxCell id="E9giI5npblJXZ4MztRx8-25" value="P2" style="ellipse;whiteSpace=wrap;html=1;fontSize=11;" vertex="1" parent="1">
          <mxGeometry x="-497.69056177125" y="-879.6129811882882" width="35.55784219473684" height="35.55806065242117" as="geometry" />
        </mxCell>
        <mxCell id="E9giI5npblJXZ4MztRx8-26" value="P3" style="ellipse;whiteSpace=wrap;html=1;fontSize=11;" vertex="1" parent="1">
          <mxGeometry x="-428.2879510659869" y="-879.6129811882882" width="35.55784219473684" height="35.55806065242117" as="geometry" />
        </mxCell>
        <mxCell id="E9giI5npblJXZ4MztRx8-27" value="P4" style="ellipse;whiteSpace=wrap;html=1;fontSize=11;" vertex="1" parent="1">
          <mxGeometry x="-359.74187720282896" y="-879.6129811882882" width="35.55784219473684" height="35.55806065242117" as="geometry" />
        </mxCell>
        <mxCell id="E9giI5npblJXZ4MztRx8-28" value="P5" style="ellipse;whiteSpace=wrap;html=1;fontSize=11;" vertex="1" parent="1">
          <mxGeometry x="-222.2233400831579" y="-879.6129811882882" width="35.55784219473684" height="35.55806065242117" as="geometry" />
        </mxCell>
        <mxCell id="E9giI5npblJXZ4MztRx8-29" value="P6" style="ellipse;whiteSpace=wrap;html=1;fontSize=11;" vertex="1" parent="1">
          <mxGeometry x="-153.67726622000004" y="-879.6129811882882" width="35.55784219473684" height="35.55806065242117" as="geometry" />
        </mxCell>
        <mxCell id="E9giI5npblJXZ4MztRx8-30" value="P7" style="ellipse;whiteSpace=wrap;html=1;fontSize=11;" vertex="1" parent="1">
          <mxGeometry x="-85.13119235684206" y="-879.6129811882882" width="35.55784219473684" height="35.55806065242117" as="geometry" />
        </mxCell>
        <mxCell id="E9giI5npblJXZ4MztRx8-44" style="edgeStyle=none;rounded=0;orthogonalLoop=1;jettySize=auto;html=1;exitX=0.5;exitY=1;exitDx=0;exitDy=0;endArrow=classic;endFill=1;" edge="1" parent="1" source="E9giI5npblJXZ4MztRx8-37" target="9TntlFMedyVJn60BAklY-20">
          <mxGeometry relative="1" as="geometry" />
        </mxCell>
        <mxCell id="E9giI5npblJXZ4MztRx8-37" value="Heterodyne" style="rounded=0;whiteSpace=wrap;html=1;fontSize=9;fillColor=#fff2cc;" vertex="1" parent="1">
          <mxGeometry x="-230.40094892243422" y="-496.6476253359234" width="52.44781723723684" height="35.55806065242117" as="geometry" />
        </mxCell>
        <mxCell id="E9giI5npblJXZ4MztRx8-45" style="edgeStyle=none;rounded=0;orthogonalLoop=1;jettySize=auto;html=1;exitX=0.5;exitY=1;exitDx=0;exitDy=0;endArrow=classic;endFill=1;" edge="1" parent="1" source="E9giI5npblJXZ4MztRx8-38" target="9TntlFMedyVJn60BAklY-21">
          <mxGeometry relative="1" as="geometry" />
        </mxCell>
        <mxCell id="E9giI5npblJXZ4MztRx8-38" value="Heterodyne" style="rounded=0;whiteSpace=wrap;html=1;fontSize=9;fillColor=#fff2cc;" vertex="1" parent="1">
          <mxGeometry x="-161.85487505927637" y="-496.6476253359234" width="52.44781723723684" height="35.55806065242117" as="geometry" />
        </mxCell>
        <mxCell id="E9giI5npblJXZ4MztRx8-46" style="edgeStyle=none;rounded=0;orthogonalLoop=1;jettySize=auto;html=1;exitX=0.5;exitY=1;exitDx=0;exitDy=0;endArrow=classic;endFill=1;" edge="1" parent="1" source="E9giI5npblJXZ4MztRx8-39" target="9TntlFMedyVJn60BAklY-22">
          <mxGeometry relative="1" as="geometry" />
        </mxCell>
        <mxCell id="E9giI5npblJXZ4MztRx8-39" value="Heterodyne" style="rounded=0;whiteSpace=wrap;html=1;fontSize=9;fillColor=#fff2cc;" vertex="1" parent="1">
          <mxGeometry x="-93.3088011961184" y="-496.6476253359234" width="52.44781723723684" height="35.55806065242117" as="geometry" />
        </mxCell>
        <mxCell id="E9giI5npblJXZ4MztRx8-40" style="edgeStyle=none;rounded=0;orthogonalLoop=1;jettySize=auto;html=1;entryX=0.5;entryY=0;entryDx=0;entryDy=0;endArrow=classic;endFill=1;" edge="1" parent="1" source="E9giI5npblJXZ4MztRx8-37" target="E9giI5npblJXZ4MztRx8-37">
          <mxGeometry relative="1" as="geometry" />
        </mxCell>
        <mxCell id="E9giI5npblJXZ4MztRx8-54" value="P4" style="ellipse;whiteSpace=wrap;html=1;fontSize=11;" vertex="1" parent="1">
          <mxGeometry x="-359.73053344302633" y="-394.934058558876" width="35.55784219473684" height="35.55806065242117" as="geometry" />
        </mxCell>
        <mxCell id="E9giI5npblJXZ4MztRx8-55" value="P3" style="ellipse;whiteSpace=wrap;html=1;fontSize=11;" vertex="1" parent="1">
          <mxGeometry x="-428.27660730618425" y="-394.934058558876" width="35.55784219473684" height="35.55806065242117" as="geometry" />
        </mxCell>
        <mxCell id="E9giI5npblJXZ4MztRx8-56" value="P2" style="ellipse;whiteSpace=wrap;html=1;fontSize=11;" vertex="1" parent="1">
          <mxGeometry x="-497.67921801144735" y="-394.934058558876" width="35.55784219473684" height="35.55806065242117" as="geometry" />
        </mxCell>
      </root>
    </mxGraphModel>
  </diagram>
</mxfile>
